HIERARCHY
ROOT hip
{
  OFFSET 0 0 0
  CHANNELS 6 Xposition Yposition Zposition Zrotation Yrotation Xrotation
  JOINT abdomen
  {
    OFFSET 0 20.6881 -0.73152
    CHANNELS 3 Zrotation Xrotation Yrotation
    JOINT chest
    {
      OFFSET 0 11.7043 -0.48768
      CHANNELS 3 Zrotation Xrotation Yrotation
      JOINT neck
      {
        OFFSET 0 22.1894 -2.19456
        CHANNELS 3 Zrotation Xrotation Yrotation
        JOINT head
        {
          OFFSET -0.24384 7.07133 1.2192
          CHANNELS 3 Zrotation Xrotation Yrotation
          JOINT leftEye
          {
            OFFSET 4.14528 8.04674 8.04672
            CHANNELS 3 Zrotation Xrotation Yrotation
            End Site
            {
              OFFSET 1 0 0
            }
          }
          JOINT rightEye
          {
            OFFSET -3.6576 8.04674 8.04672
            CHANNELS 3 Zrotation Xrotation Yrotation
            End Site
            {
              OFFSET 1 0 0
            }
          }
        }
      }
      JOINT rCollar
      {
        OFFSET -2.68224 19.2634 -4.8768
        CHANNELS 3 Zrotation Xrotation Yrotation
        JOINT rShldr
        {
          OFFSET -8.77824 -1.95073 1.46304
          CHANNELS 3 Zrotation Xrotation Yrotation
          JOINT rForeArm
          {
            OFFSET -28.1742 -1.7115 0.48768
            CHANNELS 3 Zrotation Xrotation Yrotation
            JOINT rHand
            {
              OFFSET -22.5879 0.773209 7.07136
              CHANNELS 3 Zrotation Xrotation Yrotation
              JOINT rThumb1
              {
                OFFSET -1.2192 -0.487915 3.41376
                CHANNELS 3 Zrotation Xrotation Yrotation
                JOINT rThumb2
                {
                  OFFSET -3.37035 -0.52449 3.41376
                  CHANNELS 3 Zrotation Xrotation Yrotation
                  End Site
                  {
                    OFFSET -1.78271 -1.18214 1.43049
                  }
                }
              }
              JOINT rIndex1
              {
                OFFSET -7.75947 0.938293 5.60832
                CHANNELS 3 Zrotation Xrotation Yrotation
                JOINT rIndex2
                {
                  OFFSET -2.54057 -0.884171 1.56538
                  CHANNELS 3 Zrotation Xrotation Yrotation
                  End Site
                  {
                    OFFSET -1.62519 -0.234802 1.16502
                  }
                }
              }
              JOINT rMid1
              {
                OFFSET -8.24714 1.18213 3.41376
                CHANNELS 3 Zrotation Xrotation Yrotation
                JOINT rMid2
                {
                  OFFSET -3.10165 -0.590103 1.0647
                  CHANNELS 3 Zrotation Xrotation Yrotation
                  End Site
                  {
                    OFFSET -2.48547 -0.328903 0.83742
                  }
                }
              }
              JOINT rRing1
              {
                OFFSET -8.82822 0.546677 1.51678
                CHANNELS 3 Zrotation Xrotation Yrotation
                JOINT rRing2
                {
                  OFFSET -2.60934 -0.819778 -0.0198488
                  CHANNELS 3 Zrotation Xrotation Yrotation
                  End Site
                  {
                    OFFSET -2.33842 -0.294052 0.168128
                  }
                }
              }
              JOINT rPinky1
              {
                OFFSET -8.27202 -0.0477905 -0.4584
                CHANNELS 3 Zrotation Xrotation Yrotation
                JOINT rPinky2
                {
                  OFFSET -1.82734 -0.647385 -0.700984
                  CHANNELS 3 Zrotation Xrotation Yrotation
                  End Site
                  {
                    OFFSET -1.69225 -0.51767 -0.607171
                  }
                }
              }
            }
          }
        }
      }
      JOINT lCollar
      {
        OFFSET 2.68224 19.2634 -4.8768
        CHANNELS 3 Zrotation Xrotation Yrotation
        JOINT lShldr
        {
          OFFSET 8.77824 -1.95073 1.46304
          CHANNELS 3 Zrotation Xrotation Yrotation
          JOINT lForeArm
          {
            OFFSET 28.1742 -1.7115 0.48768
            CHANNELS 3 Zrotation Xrotation Yrotation
            JOINT lHand
            {
              OFFSET 22.5879 0.773209 7.07136
              CHANNELS 3 Zrotation Xrotation Yrotation
              JOINT lThumb1
              {
                OFFSET 1.2192 -0.487915 3.41376
                CHANNELS 3 Zrotation Xrotation Yrotation
                JOINT lThumb2
                {
                  OFFSET 3.37035 -0.52449 3.41376
                  CHANNELS 3 Zrotation Xrotation Yrotation
                  End Site
                  {
                    OFFSET 1.78271 -1.18214 1.43049
                  }
                }
              }
              JOINT lIndex1
              {
                OFFSET 7.75947 0.938293 5.60832
                CHANNELS 3 Zrotation Xrotation Yrotation
                JOINT lIndex2
                {
                  OFFSET 2.54057 -0.884171 1.56538
                  CHANNELS 3 Zrotation Xrotation Yrotation
                  End Site
                  {
                    OFFSET 1.62519 -0.234802 1.16502
                  }
                }
              }
              JOINT lMid1
              {
                OFFSET 8.24714 1.18213 3.41376
                CHANNELS 3 Zrotation Xrotation Yrotation
                JOINT lMid2
                {
                  OFFSET 3.10165 -0.590103 1.0647
                  CHANNELS 3 Zrotation Xrotation Yrotation
                  End Site
                  {
                    OFFSET 2.48547 -0.328903 0.83742
                  }
                }
              }
              JOINT lRing1
              {
                OFFSET 8.82822 0.546677 1.51678
                CHANNELS 3 Zrotation Xrotation Yrotation
                JOINT lRing2
                {
                  OFFSET 2.60934 -0.819778 -0.0198488
                  CHANNELS 3 Zrotation Xrotation Yrotation
                  End Site
                  {
                    OFFSET 2.33842 -0.294052 0.168128
                  }
                }
              }
              JOINT lPinky1
              {
                OFFSET 8.27202 -0.0477905 -0.4584
                CHANNELS 3 Zrotation Xrotation Yrotation
                JOINT lPinky2
                {
                  OFFSET 1.82734 -0.647385 -0.700984
                  CHANNELS 3 Zrotation Xrotation Yrotation
                  End Site
                  {
                    OFFSET 1.69225 -0.51767 -0.607171
                  }
                }
              }
            }
          }
        }
      }
    }
  }
  JOINT rButtock
  {
    OFFSET -8.77824 4.35084 1.2192
    CHANNELS 3 Zrotation Xrotation Yrotation
    JOINT rThigh
    {
      OFFSET 0 -1.70687 -2.19456
      CHANNELS 3 Zrotation Xrotation Yrotation
      JOINT rShin
      {
        OFFSET 0 -36.8199 0.73152
        CHANNELS 3 Zrotation Xrotation Yrotation
        JOINT rFoot
        {
          OFFSET 0.73152 -45.1104 -5.12064
          CHANNELS 3 Zrotation Xrotation Yrotation
          End Site
          {
            OFFSET -1.1221 -3.69964 12.103
          }
        }
      }
    }
  }
  JOINT lButtock
  {
    OFFSET 8.77824 4.35084 1.2192
    CHANNELS 3 Zrotation Xrotation Yrotation
    JOINT lThigh
    {
      OFFSET 0 -1.70687 -2.19456
      CHANNELS 3 Zrotation Xrotation Yrotation
      JOINT lShin
      {
        OFFSET 0 -36.8199 0.73152
        CHANNELS 3 Zrotation Xrotation Yrotation
        JOINT lFoot
        {
          OFFSET -0.73152 -45.1104 -5.12064
          CHANNELS 3 Zrotation Xrotation Yrotation
          End Site
          {
            OFFSET 1.1221 -3.69964 12.103
          }
        }
      }
    }
  }
}
MOTION
Frames:	8
Frame Time:	0.03333
0.0 0.0 0.0 0.0 0.0 0.0 0.0 0.0 0.0 0.0 0.0 0.0 0.0 0.0 0.0 0.0 0.0 0.0 0.0 0.0 0.0 0.0 0.0 0.0 0.0 0.0 0.0 0.0 0.0 0.0 0.0 0.0 0.0 0.0 0.0 0.0 0.0 0.0 0.0 0.0 0.0 0.0 0.0 0.0 0.0 0.0 0.0 0.0 0.0 0.0 0.0 0.0 0.0 0.0 0.0 0.0 0.0 0.0 0.0 0.0 0.0 0.0 0.0 0.0 0.0 0.0 0.0 0.0 0.0 0.0 0.0 0.0 0.0 0.0 0.0 0.0 0.0 0.0 0.0 0.0 0.0 0.0 0.0 0.0 0.0 0.0 0.0 0.0 0.0 0.0 0.0 0.0 0.0 0.0 0.0 0.0 0.0 0.0 0.0 0.0 0.0 0.0 0.0 0.0 0.0 0.0 0.0 0.0 0.0 0.0 0.0 0.0 0.0 0.0 0.0 0.0 0.0 0.0 0.0 0.0 0.0 0.0 0.0 0.0 0.0 0.0 0.0 0.0 0.0 0.0 0.0 0.0
-0.0949 68.3597 0.034499999999999996 0.568776 -5.238762 -0.768381 -3.65527 -0.55236 98.581527 4.316711 7.347371 -13.660031 -5.059346 -1.766425 -169.427206 -30.813232 49.016694 -143.102756 60.659037 -4.678214 -7.987826 108.788282 -12.984444 18.059547 60.660316 50.26339 17.533843 -0.439409 13.547952 15.094808 -90.940272 86.186372 -95.528927 -178.395596 35.392241 144.520804 178.451058 -2.029723 115.498467 18.909919 -51.906177 18.231496 -161.255407 34.27488 38.326752 -35.453521 -11.751887 87.138714 161.027085 2.566147 168.336371 -179.06235 -18.239766 -136.828723 -92.004975 -16.686761 94.589601 -162.107534 -2.6024 -31.272959 112.818981 57.350945 101.618714 33.326546 -24.488394 -53.068259 82.563173 -42.680721 -165.002953 77.788016 73.254683 -97.175273 3.900515 -44.006077 -151.538092 -171.123265 -16.483838 -145.12475 174.978232 16.422031 -111.079184 -154.617108 35.758017 120.996714 -150.879032 0.591825 164.692323 7.216714 8.635137 159.03224 -173.793755 -32.033765 -176.312463 -166.249337 -47.592978 136.179164 -101.821362 -5.705667 26.090624 -110.333404 26.741181 -0.897933 -30.10067 -49.861103 173.227371 -124.932685 -25.968236 -87.742815 64.063911 1.065083 74.948597 -27.962654 59.40789 -148.337345 5.570323 -4.090539 79.841236 -72.448804 20.598626 97.582119 -2.372058 -47.31515 0.324193 4.51108 48.991469 -0.0 -8.142963 -1.600945 -89.555379 -66.0544 -19.865386 100.575561
-0.1342 68.1438 -0.5375 -148.348748 -79.408053 161.725269 -2.369974 -16.260706 -0.758808 4.569632 -3.270531 1.998247 4.686103 13.573271 122.548829 -17.122629 5.985173 -132.418166 19.727745 2.008622 11.514163 11.943148 -2.292895 -21.66123 -159.877431 -6.336102 156.131268 24.748702 -74.785634 15.374289 -114.78733 -49.456521 -66.339899 15.630545 -40.642131 0.177718 92.689674 -54.875344 23.690086 -127.92355 -6.449657 84.957758 -19.205897 7.060649 -15.987449 -148.822713 -42.982326 81.297055 -91.879346 69.479815 83.474139 -171.611658 -71.414938 -165.714377 -126.964849 50.397297 134.584963 22.101293 21.476816 21.234165 -156.052596 -28.145027 -140.097484 -172.951691 12.070321 -130.031676 147.65623 31.435151 -158.15922 -6.598549 0.022801 2.353239 -162.431959 -39.553719 110.850223 7.789473 21.737448 -1.509865 -46.340779 -56.76251 -19.692239 26.761883 -55.669446 89.238921 -31.622359 -49.099429 7.255464 163.129563 -28.616955 -88.491441 -77.391019 -76.301244 -42.807145 -172.503784 1.541041 -161.460477 66.869679 54.389127 -94.726355 63.418588 -37.157998 142.512677 150.416956 54.658614 120.098073 8.453065 13.319676 60.387035 -162.507406 78.270116 -0.0 151.308516 30.731722 -92.205564 -64.285851 -10.664987 -121.443398 -98.956479 -9.213331 -176.431201 0.398214 2.843804 -0.531133 21.867834 -46.912604 28.791125 -4.204159 74.107061 143.423727 -6.118803 26.879684 -138.010793
-0.20639999999999997 68.57469999999999 -1.1047 -125.860324 -78.121444 128.993343 -2.572429 6.392482 -73.850665 13.787902 -4.899695 84.775092 6.327449 8.645841 -49.627313 13.526567 -12.279996 54.924196 58.454773 4.898114 8.742647 5.510015 0.763972 15.77585 7.028275 -8.373369 -8.32409 -152.138042 20.154818 152.861047 -153.154235 -25.530028 -96.730791 1.146783 -33.776047 -2.767967 130.548115 -63.511912 54.264214 -96.088883 -14.377432 74.261136 1.763067 -3.735381 -3.341792 -138.899038 -43.294263 117.093115 -162.446113 23.165569 136.166758 -94.788737 49.84447 76.930924 1.800925 -27.344739 1.582543 148.879831 57.45838 -143.16248 -170.423687 -41.226642 179.084117 137.077835 23.072962 159.8123 161.510456 -3.039909 -159.552534 -20.086892 -5.882073 -5.507494 0.442676 -0.602481 104.581158 168.312417 2.053022 -128.751381 -174.308131 3.294256 -95.590632 -162.240636 -53.173862 -179.484447 -27.738532 -1.713447 -2.232319 133.59734 -41.170099 -102.943572 154.854637 -41.002395 -158.048309 -1.508909 68.016465 -9.010493 -17.492728 -2.743714 -15.387655 -4.048281 7.128218 5.374792 -168.548795 6.900056 154.909502 136.099702 -44.7045 79.688013 57.145318 46.716616 30.37339 -87.297605 -5.602501 90.264019 36.864024 -52.071512 63.157765 -7.21638 18.859031 145.177123 0.629853 10.32756 -3.509074 -4.140349 -54.88421 174.94274 44.002631 -51.779253 139.302572 9.494751 0.684762 87.6193
0.3283 65.3106 -0.0928 -120.403014 -81.735051 123.772182 -17.675315 8.910285 -0.0 11.332844 -17.270904 11.559489 11.091896 6.342577 13.632863 -11.667417 -17.603506 -9.285841 20.398445 -3.824932 -21.028368 -3.602645 -0.09217 2.930112 -75.614935 70.747472 83.726195 1.147142 -0.327306 15.008145 79.336942 81.030773 157.006491 173.86619 0.35208 147.273658 75.854898 -41.679035 27.302101 152.399728 -11.941198 85.557962 90.005936 -72.380265 58.181663 95.158121 -84.113807 28.2944 153.017829 15.522061 128.555695 35.631097 -53.554347 124.409685 -23.980817 -51.065045 8.391167 104.675669 48.254917 -74.874081 77.336802 -25.495208 9.896945 135.578969 24.72659 165.110647 -12.220926 -43.797533 -0.233523 145.390601 56.409302 -138.408064 -14.15207 78.884534 99.153172 -168.025092 4.424837 -131.136626 -13.086766 -46.185989 -31.895513 20.005 62.855702 23.459053 88.048741 -83.319052 140.940649 -167.99907 -45.02802 -37.640467 152.486031 46.939602 -95.405243 56.971568 25.473114 -58.925619 -71.644602 -86.498501 -48.95072 -159.855171 -70.657004 -162.317605 19.677897 -59.345253 -39.489353 -133.733688 49.957527 62.161677 -28.672812 23.677798 51.358552 -34.006746 -50.069863 40.796352 52.20322 -39.917372 -32.048946 -16.346735 -14.833544 -91.694473 -13.415017 33.107127 -83.330011 70.818146 -21.62851 82.693134 4.098634 47.962762 25.470213 2.310379 6.321621 -20.479324
0.6106999999999999 69.2052 0.8410000000000001 -151.428459 -79.16499 158.808193 -11.355896 -9.012623 -115.360072 3.048718 6.498428 134.408476 2.427319 -4.488613 -20.94903 2.835298 -6.507664 19.320771 11.41453 -1.422442 -14.160973 0.775767 -0.26647 -37.913934 7.027078 22.254145 1.175367 28.283394 -49.553097 21.300717 -166.246767 -52.942574 52.368718 -176.385589 -17.177078 151.328441 -173.576583 -38.351744 85.033345 30.84721 -80.449423 36.736114 -150.206814 -57.786546 122.754235 -128.556713 -76.601357 124.986166 -158.788589 -7.692786 140.800719 -175.59753 -19.239305 125.391373 -95.634683 49.24046 100.559316 -118.943109 -11.961975 131.885755 36.8896 6.357178 4.566177 -112.771576 44.214164 174.928691 -0.442684 1.286562 -3.95179 111.145086 65.994121 -108.177275 36.472305 5.20618 55.176791 -144.928631 -51.89272 -118.341285 -159.287952 -0.145687 -96.020107 56.392922 -40.423069 20.401299 6.9182 -26.318123 8.47137 115.099149 63.292319 -55.360022 -9.059989 -55.459828 -55.543056 50.354383 -37.724229 94.005696 73.817529 45.240956 -97.630363 85.658101 -36.183256 165.328592 -17.937017 0.034649 -10.167816 116.126506 -69.136107 84.542114 -21.564657 21.89021 36.187018 -13.46436 -57.346275 92.327832 44.514411 -48.837276 132.313751 82.74976 69.958108 -0.182644 -21.750328 26.286606 -37.366893 40.975619 -56.844064 -180.0 34.833774 -36.462549 -96.868897 -81.365348 8.982928 20.102417
-0.49779999999999996 70.5759 0.24489999999999998 -152.820829 -72.833147 161.340429 1.273274 -9.409719 0.260553 -2.491618 -5.982971 13.170216 -2.142441 -0.057186 89.919303 -8.254318 -5.971251 -82.7224 22.502831 11.129696 52.187334 14.424964 -6.308546 -47.062672 -114.44463 46.743901 124.45099 92.087314 -81.770888 83.878767 -87.295803 -36.729133 70.083052 29.422065 -75.132651 8.032799 -1.515847 37.444672 8.734109 26.265675 -53.888929 -5.681148 19.20052 2.667609 11.901951 -171.20464 -16.219987 99.058795 -123.335984 -68.320036 -165.440919 20.521542 56.665966 -2.459079 69.298201 -45.34589 35.062119 -51.744701 26.238819 14.585173 -40.909372 -84.092495 -42.552317 -127.697489 -40.669685 -4.033853 155.026884 -3.197778 -164.446556 155.532068 -0.274412 -178.150301 4.032067 -30.840725 -40.339889 -5.265105 -38.88388 -7.7141 7.690863 -17.508339 -1.839145 21.853432 -49.221613 86.595156 14.828345 -33.31453 16.799654 5.2048 -7.848241 -31.060016 1.113668 26.938945 -59.600647 -136.399647 25.042622 112.508838 150.943091 -2.95471 -178.244087 118.415448 -0.094353 -135.240515 94.991125 -10.925848 65.650519 114.251688 57.408413 106.344319 77.501497 59.125412 27.607521 -100.513473 -9.48945 -91.752487 -34.69617 52.077587 -44.44444 101.44649 56.441332 -10.093136 -3.029033 13.764892 12.538151 -47.223311 -46.659887 123.937823 35.816354 -49.541466 170.709607 84.035559 43.469983 -24.296267
-2.4039 68.9045 -1.6145 -149.398014 -72.497569 158.114804 0.954311 -13.411422 124.091524 -3.819854 0.641991 -116.967235 -30.604757 16.984196 -100.851163 21.264318 37.135805 117.030141 12.223819 11.334038 85.64338 42.675985 -11.297867 -28.417672 -38.541665 47.068362 52.288834 41.989071 -62.022072 35.446397 -0.496085 28.063267 119.677408 -7.810292 5.460395 -15.153344 17.931784 11.11287 0.975565 -148.980858 -33.812107 146.478958 -173.373823 -46.919565 99.483557 -166.671529 -5.411023 123.368203 6.853539 61.937559 -15.213101 10.045948 -24.66876 24.771135 156.827213 -66.29514 101.317872 78.032966 -27.074237 89.186715 69.493729 -71.296064 74.098295 -110.401611 -30.054606 -4.029887 123.001477 74.258611 -129.841054 154.679099 82.563455 -161.322475 -88.270888 17.051554 50.217687 20.08241 18.892311 -18.286958 -5.936644 -12.917703 15.871602 28.048695 6.279068 7.518389 125.216371 43.965011 -92.135858 75.221101 55.802282 -3.185535 1.016848 52.758983 -34.818525 118.649059 -32.1093 131.044499 157.60866 3.357767 173.052729 104.294781 29.813534 -118.554565 -37.164442 62.587192 74.386831 -7.51637 2.076824 -90.922444 73.677282 59.643635 28.345064 -99.568008 -14.696735 -180.0 -62.443799 -7.597563 -155.567676 -59.016633 -44.577343 -139.270281 -143.340155 59.819517 -40.728424 148.352338 24.083812 -102.794122 -64.050903 -15.13566 172.984951 -3.887027 11.54056 -69.399017
